<svg xmlns="http://www.w3.org/2000/svg" width="108" height="26" viewBox="0 0 108 26">
            <defs><path id="a" d="M0 21.57h91.42V0H0z"></path></defs>
            <g fill="none" fill-rule="evenodd"><path fill="#333" d="M48.774 19.354h2.613V0h-2.613zM29.467 9.073v6.94h3.321v-5.84l-.002 1.038V6.23a4.535 4.535 0 0 1 4.532-4.538 4.535 4.535 0 0 1 4.531 4.538v4.53l-.002-1.49v6.742h3.321V9.073c0-3.358-1.987-6.686-5.833-7.539h6.073V.5h-16.18v1.034H35.3c-3.845.853-5.833 4.181-5.833 7.54M30.193 19.272v6.077H51.061v-.739H33.505v-5.338zM60.878 9.153a3.165 3.165 0 0 1-3.162-3.167 3.165 3.165 0 0 1 3.162-3.167h3.07v.002H73.262v-.002h3.07a3.165 3.165 0 0 1 3.163 3.167 3.165 3.165 0 0 1-3.162 3.167H73.26V9.15h-9.312v.002h-3.07zm19.663 5.542h-11.42v-3.223H74.35c2.713 0 5.403-1.862 5.403-5.455l-.001-.031.001-.032C79.753 2.362 77.063.5 74.35.5H62.859c-2.712 0-5.402 1.862-5.402 5.454l.001.032-.001.031c0 3.593 2.69 5.455 5.403 5.455H68.089v3.223H56.667v2.614H80.54v-2.614zM58.025 19.272v6.077h21.529v-.739H61.337v-5.338zM88.984 9.353l-.002 1.038V5.41A4.535 4.535 0 0 1 93.514.872a4.535 4.535 0 0 1 4.531 4.537v4.53l-.002-1.489v6.257h3.32V8.254C101.364 4.36 98.7.5 93.559.5c-.015 0-.03.002-.044.003L93.469.5c-5.142 0-7.806 3.861-7.806 7.754v6.454h3.321V9.353zM104.893 14.694h2.61V0h-2.61zM85.681 17.324h18.51v3.097H85.683v4.943h3.31v-.015h18.51v-.739h-18.51v-3.45h15.2v.005h3.31v-4.58h-21.82zM15.7 8.254C15.7 4.36 13.037.5 7.896.5L7.85.502 7.806.5C2.664.5 0 4.36 0 8.254V25.34h3.32V12.01H3.32v-6.6A4.535 4.535 0 0 1 7.851.872a4.535 4.535 0 0 1 4.531 4.538v6.6h-.003v13.33h3.322V8.254zM22.02 13.065h4.039V12.03H22.02V.001h-2.61V25.34h2.61z"></path></g>
</svg>