<svg xmlns="http://www.w3.org/2000/svg" width="34" height="33" viewBox="0 0 34 33">
    <g fill="none" fill-rule="evenodd">
        <path id="o1" stroke="#333" stroke-width="2" d="M1 9h32v23H1zM1 1h32v8H1z"></path>
        <path id="o2" fill="#333" d="M4 13h2v2H4zM8 13h2v2H8zM12 13h2v2h-2zM16 13h2v2h-2zM20 13h2v2h-2zM24 13h2v2h-2zM28 13h2v2h-2zM4 17h2v2H4zM8 17h2v2H8zM12 17h2v2h-2zM16 17h2v2h-2zM20 17h2v2h-2zM24 17h2v2h-2zM28 17h2v2h-2zM4 21h2v2H4zM8 21h2v2H8zM12 21h2v2h-2zM16 21h2v2h-2zM20 21h2v2h-2zM24 21h2v2h-2zM28 21h2v2h-2zM4 25h2v2H4zM8 25h2v2H8zM12 25h2v2h-2zM16 25h2v2h-2zM20 25h2v2h-2zM24 25h2v2h-2zM28 25h2v2h-2z"></path>
    </g>
</svg>